<?xml version="1.0" encoding="iso-8859-1"?>
<!-- Generator: Adobe Illustrator 19.0.0, SVG Export Plug-In . SVG Version: 6.00 Build 0)  -->
<svg xmlns="http://www.w3.org/2000/svg" xmlns:xlink="http://www.w3.org/1999/xlink" version="1.1" id="Layer_1" x="0px" y="0px" viewBox="0 0 512 512" style="enable-background:new 0 0 512 512;" xml:space="preserve" width="512px" height="512px">
<g>
	<g>
		<polygon points="101.473,104.759 255.897,393.026 410.518,104.759   " fill="#FFFFFF"/>
	</g>
</g>
<g>
	<g>
		<path d="M436.871,14.759H75.135c-58.174,0-94.203,63.251-64.497,113.291l180.865,332.476c29.059,48.921,99.896,48.985,128.994,0    L501.353,128.05C531.059,78.061,495.094,14.759,436.871,14.759z M449.776,97.42L268.891,429.896    c-5.676,9.551-20.023,10.056-26.03-0.044L62.23,97.406c-5.902-9.974,1.268-22.647,12.905-22.647h361.736    C448.438,74.759,455.702,87.375,449.776,97.42z" fill="#FFFFFF"/>
	</g>
</g>
<g>
</g>
<g>
</g>
<g>
</g>
<g>
</g>
<g>
</g>
<g>
</g>
<g>
</g>
<g>
</g>
<g>
</g>
<g>
</g>
<g>
</g>
<g>
</g>
<g>
</g>
<g>
</g>
<g>
</g>
</svg>
